%
M48
M72
T01C0.02756
T02C0.03543
T03C0.04000
T04C0.04724
%
T01
X147372Y44262
X151826Y48716
X156280Y53170
X157672Y47324
X153218Y42870
T02
X91224Y77994
X122474Y44994
X47474Y131244
X44396Y181750
X34396Y181750
T03
X20733Y162140
X20733Y152140
X20733Y142140
X20733Y132140
X20733Y112062
X20733Y102062
X20733Y92062
X125932Y161663
X125932Y179463
X151532Y179463
X151532Y161663
X153012Y130624
X143012Y130624
X143012Y120624
X153012Y120624
X153012Y110624
X143012Y110624
T04
X166581Y56233
X180500Y42313
X158229Y20042
X144310Y33961
M30
